<?xml version="1.0" encoding="UTF-8" standalone="no"?>
<!-- Created with Inkscape (http://www.inkscape.org/) -->

<svg
   xmlns:dc="http://purl.org/dc/elements/1.1/"
   xmlns:cc="http://creativecommons.org/ns#"
   xmlns:rdf="http://www.w3.org/1999/02/22-rdf-syntax-ns#"
   xmlns:svg="http://www.w3.org/2000/svg"
   xmlns="http://www.w3.org/2000/svg"
   xmlns:sodipodi="http://sodipodi.sourceforge.net/DTD/sodipodi-0.dtd"
   xmlns:inkscape="http://www.inkscape.org/namespaces/inkscape"
   width="118.57214mm"
   height="51.726032mm"
   viewBox="0 0 118.57214 51.726032"
   version="1.1"
   id="svg8"
   inkscape:version="0.92.5 (2060ec1f9f, 2020-04-08)"
   sodipodi:docname="logo-alternative.svg">
  <defs
     id="defs2" />
  <sodipodi:namedview
     id="base"
     pagecolor="#ffffff"
     bordercolor="#666666"
     borderopacity="1.0"
     inkscape:pageopacity="0.0"
     inkscape:pageshadow="2"
     inkscape:zoom="0.35"
     inkscape:cx="-142.44909"
     inkscape:cy="-315.8335"
     inkscape:document-units="mm"
     inkscape:current-layer="layer1"
     showgrid="false"
     fit-margin-top="5"
     fit-margin-left="5"
     fit-margin-right="5"
     fit-margin-bottom="5"
     inkscape:window-width="2560"
     inkscape:window-height="1387"
     inkscape:window-x="-8"
     inkscape:window-y="22"
     inkscape:window-maximized="1" />
  <metadata
     id="metadata5">
    <rdf:RDF>
      <cc:Work
         rdf:about="">
        <dc:format>image/svg+xml</dc:format>
        <dc:type
           rdf:resource="http://purl.org/dc/dcmitype/StillImage" />
        <dc:title></dc:title>
      </cc:Work>
    </rdf:RDF>
  </metadata>
  <g
     inkscape:label="Layer 1"
     inkscape:groupmode="layer"
     id="layer1"
     transform="translate(-17.656917,-13.543017)">
    <g
       aria-label="CWI"
       style="font-style:normal;font-variant:normal;font-weight:normal;font-stretch:normal;font-size:10.58333302px;line-height:1.25;font-family:Stonecross;-inkscape-font-specification:Stonecross;letter-spacing:0px;word-spacing:0px;fill:#000000;fill-opacity:1;stroke:none;stroke-width:0.26458332"
       id="text817">
      <path
         d="m 58.955816,53.992151 q -1.27,1.016 -1.9812,1.6764 -5.791199,4.2164 -14.985999,4.2164 -3.4544,0 -7.366,-1.778 -4.6228,-2.1336 -7.874,-5.9944 -3.7592,-4.4704 -3.7592,-11.7856 0,-1.9812 1.016,-4.6228 0.9144,-2.1336 1.8288,-4.2672 0.1016,-0.254 -0.7112,-0.4572 -0.762,-0.2032 -0.6096,-0.4572 0.9652,-1.778 4.7752,-5.3848 6.2992,-5.994399 16.3576,-5.994399 1.0668,0 2.286,0.5588 1.4732,0.7112 2.1844,0.8636 0.2032,0.0508 1.27,-0.1016 1.0668,-0.1524 1.219199,-0.3048 0.1524,-0.1524 0.3048,-0.1524 0.1524,0 0.6604,0.4064 0.5588,0.3556 0.9144,0.3556 -0.1016,0 0.6096,-0.762 0.762,-0.8128 2.1844,-1.0668 v 8.788399 q -6.603999,-3.4036 -8.889999,-3.9624 -1.8796,-0.4572 -4.3688,-0.4572 -4.2672,0 -9.144,4.9276 -2.1844,2.2352 -3.048,5.6388 -0.5588,2.1336 -0.9652,6.9088 -0.0508,0.8128 0.1524,2.1844 0.2032,1.524 0.2032,2.032 0,0.5588 -0.1524,0.9652 0.508,0.8636 1.3208,2.3876 0.4064,0.8128 1.1176,1.4224 1.0668,0.8636 1.4732,1.3208 2.1336,2.3876 4.1656,3.4544 2.2352,1.1176 5.334,1.1176 3.7084,0 6.5024,-1.3716 2.082799,-1.6764 4.470399,-3.6068 0.4064,0 0.4064,0.508 0,0.254 -0.2032,1.0668 -0.1524,0.8128 -0.0508,1.0668 2.032,-1.7272 2.032,-1.6764 l 1.3208,-1.3208 z"
         style="font-size:50.79999924px;fill:#fffffe;fill-opacity:1;stroke:#000000;stroke-width:0.66500002;stroke-miterlimit:4;stroke-dasharray:none;stroke-opacity:1"
         id="path819"
         inkscape:connector-curvature="0" />
      <path
         d="m 115.90261,19.143352 q -1.016,7.670799 -1.016,16.509999 0,2.794 0.0508,5.8928 0,0.3048 -0.6096,1.2192 -0.5588,0.8636 -0.508,1.1684 0,0.2032 0.6096,0.3048 0.6096,0.0508 0.6096,0.254 0.1524,4.2164 0.5588,11.4808 l 0.2032,3.7592 h -7.3152 v -2.794 q -1.0668,0.4064 -2.7432,1.27 -3.3528,1.6764 -7.061195,1.6764 -2.6416,0 -4.826,-0.8636 -0.9144,-0.3556 -4.318,-2.2352 -4.2672,3.2004 -10.2108,3.2004 -9.4996,0 -13.9192,-4.9276 -4.4196,-4.9276 -4.4196,-12.7508 0,-4.7752 1.9304,-9.8044 2.032,-4.6228 4.064,-9.1948 l -1.1684,0.9652 -0.6096,-0.9652 q -0.9652,-1.6256 -2.3368,-4.317999 h 11.2776 v 2.692399 q -2.286,2.794 -4.064,7.3152 -0.1016,0.254 -0.4064,0.254 -0.2032,0 -0.6096,-0.0508 -0.4064,-0.1016 -0.5588,-0.1016 -0.3556,0 -0.4064,0.254 -0.1016,0.254 0.3556,1.6764 0.508,1.4224 0.4064,1.6764 -1.0668,3.9624 -1.0668,7.1628 0,5.7404 2.9464,10.7696 2.7432,4.7244 8.9916,4.7244 h 0.7112 q 6.0452,0 6.604,-1.524 -2.7432,-2.6416 -3.5052,-9.3472 -0.254,-2.1844 -0.254,-4.7752 0,-4.6736 0.9652,-8.4836 0.1016,-0.3556 1.9304,-6.9088 -1.0668,-1.2192 -3.8608,-5.333999 h 12.5984 q -2.032,4.267199 -3.2512,8.889999 -0.1016,0.3048 -1.4224,1.3208 -1.27,0.9652 -1.3208,1.27 -0.0508,0.1524 0.3048,0.1524 v 0 q -0.0508,0 1.0668,-0.1016 0.7112,-0.0508 0.8636,0.1016 0.254,0.2032 -0.3048,0.762 -0.762,4.1148 -0.762,7.9248 0,5.6388 2.794,11.3792 2.6416,5.3848 7.416795,5.3848 1.8288,0 5.3848,-1.9304 3.2512,-1.778 3.2512,-4.064 v -19.9136 q 0,-4.2164 -1.524,-6.4008 -2.2352,-1.9812 -4.1656,-4.622799 h 5.588 l 0.9144,1.2192 4.2672,-1.2192 z"
         style="font-size:50.79999924px;fill:#fffffe;fill-opacity:1;stroke:#000000;stroke-width:0.565;stroke-miterlimit:4;stroke-dasharray:none;stroke-opacity:1"
         id="path821"
         inkscape:connector-curvature="0" />
      <path
         d="m 130.94656,59.630951 h -6.7056 q 0,-1.1684 0.2032,-3.556 0.254,-2.4384 0.5588,-4.7244 v -5.9944 l 0.9652,-1.1176 -0.9652,-1.1176 v -16.8148 q 0,-2.0828 -0.9144,-3.0988 -1.016,-1.2192 -6.7056,-4.267199 h 13.5636 v 12.852399 l -1.1176,1.9812 1.1176,0.508 z"
         style="font-size:50.79999924px;fill:#fffffe;fill-opacity:1;stroke:#000000;stroke-width:0.565;stroke-miterlimit:4;stroke-dasharray:none;stroke-opacity:1"
         id="path823"
         inkscape:connector-curvature="0" />
    </g>
  </g>
</svg>
