<?xml version="1.0" encoding="UTF-8" standalone="no"?>
<!-- Created with Inkscape (http://www.inkscape.org/) -->

<svg
   xmlns:dc="http://purl.org/dc/elements/1.1/"
   xmlns:cc="http://creativecommons.org/ns#"
   xmlns:rdf="http://www.w3.org/1999/02/22-rdf-syntax-ns#"
   xmlns:svg="http://www.w3.org/2000/svg"
   xmlns="http://www.w3.org/2000/svg"
   xmlns:sodipodi="http://sodipodi.sourceforge.net/DTD/sodipodi-0.dtd"
   xmlns:inkscape="http://www.inkscape.org/namespaces/inkscape"
   width="187.12656mm"
   height="50.89922mm"
   viewBox="0 0 187.12656 50.89922"
   version="1.1"
   id="svg8"
   sodipodi:docname="logo.svg"
   inkscape:version="0.92.5 (2060ec1f9f, 2020-04-08)">
  <defs
     id="defs2" />
  <sodipodi:namedview
     id="base"
     pagecolor="#ffffff"
     bordercolor="#666666"
     borderopacity="1.0"
     inkscape:pageopacity="0.0"
     inkscape:pageshadow="2"
     inkscape:zoom="0.35"
     inkscape:cx="-117.63811"
     inkscape:cy="-242.15687"
     inkscape:document-units="mm"
     inkscape:current-layer="layer1"
     showgrid="false"
     fit-margin-top="0"
     fit-margin-left="0"
     fit-margin-right="0"
     fit-margin-bottom="0"
     inkscape:window-width="2560"
     inkscape:window-height="1387"
     inkscape:window-x="-8"
     inkscape:window-y="22"
     inkscape:window-maximized="1" />
  <metadata
     id="metadata5">
    <rdf:RDF>
      <cc:Work
         rdf:about="">
        <dc:format>image/svg+xml</dc:format>
        <dc:type
           rdf:resource="http://purl.org/dc/dcmitype/StillImage" />
        <dc:title></dc:title>
      </cc:Work>
    </rdf:RDF>
  </metadata>
  <g
     inkscape:label="Layer 1"
     inkscape:groupmode="layer"
     id="layer1"
     transform="translate(-11.092346,-33.863443)">
    <g
       aria-label="CWI"
       transform="scale(0.26458333)"
       style="font-style:normal;font-variant:normal;font-weight:normal;font-stretch:normal;font-size:192px;line-height:1.25;font-family:Celticmd;-inkscape-font-specification:Celticmd;letter-spacing:0px;word-spacing:0px;fill:#000000;fill-opacity:1;stroke:none"
       id="flowRoot815">
      <path
         d="m 138.48633,320.36282 q 22.5,0 40.59375,-7.59375 18.1875,-7.59375 28.40625,-24.09375 1.59375,-2.8125 3.5625,-6 1.96875,-3.1875 3.46875,-6 1.5,-2.8125 2.71875,-6 -13.125,11.25 -23.34375,17.34375 -10.21875,6 -22.6875,6 -2.90625,0 -4.5,-0.1875 -27.5625,-4.96875 -45.28125,-31.03125 -5.625,-8.53125 -8.625,-18.84375 -2.90625,-10.3125 -2.90625,-20.71875 0,-18.28125 8.25,-33.28125 5.34375,-10.03125 13.78125,-18.84375 8.53125,-8.90625 17.34375,-12.1875 4.5,-1.40625 9.5625,-1.40625 6.28125,0.1875 11.8125,2.25 5.625,1.96875 9.5625,5.625 7.6875,8.25 12.9375,17.53125 5.34375,9.28125 10.3125,21.84375 5.4375,-22.6875 11.53125,-40.40625 6.1875,-17.8125 14.90625,-31.78125 0,-0.46875 0.0937,-0.75 0.1875,-0.375 0.28125,-0.5625 -9.1875,0 -18.28125,-0.375 -9,-0.375 -21.46875,-1.125 -12.375,-0.75 -23.34375,-1.125 -10.96875,-0.46875 -20.4375,-0.46875 -10.21875,0 -20.34375,0.5625 -11.34375,1.59375 -22.03125,5.71875 -10.687502,4.03125 -19.593752,9.9375 -8.8125,5.90625 -16.3125,13.59375 -7.5,7.6875 -13.5,17.25 -6.375,11.0625 -9.75,23.90625 -3.28125,12.84375 -3.28125,26.15625 0,10.40625 2.0625,20.0625 2.15625,9.5625 6.1875,18.5625 5.25,9.9375 9.84375,16.78125 4.59375,6.84375 10.21875,12.375 5.71875,5.53125 12.375,9.84375 6.75,4.3125 17.15625,9.375 9.468752,3.75 19.218752,5.8125 9.84375,2.0625 19.5,2.25 z m -2.0625,-2.15625 q -10.78125,-0.75 -21.09375,-3.28125 -10.3125,-2.625 -19.875002,-7.125 -9.5625,-4.59375 -16.875,-10.6875 -1.3125,-0.84375 -3.28125,-2.625 -1.875,-1.78125 -3.9375,-3.84375 -1.96875,-2.15625 -4.6875,-4.875 -10.40625,-11.8125 -16.59375,-28.5 -6.1875,-16.6875 -6.1875,-34.03125 0,-14.34375 4.21875,-27.09375 10.3125,-32.0625 43.21875,-53.34375 9.187502,-5.0625 18.843752,-7.875 9.65625,-2.8125 19.59375,-3.9375 10.03125,-1.125 21.1875,-1.125 8.8125,0 18.75,0.65625 9.9375,0.65625 20.8125,1.59375 10.96875,0.84375 19.21875,1.40625 8.25,0.46875 16.3125,0.5625 -7.5,13.5 -13.40625,30.09375 -5.8125,16.5 -9.375,33.84375 -7.5,-18 -19.40625,-31.875 -3.5625,-3.84375 -7.78125,-6 -4.125,-2.25 -10.875,-4.6875 -2.90625,-0.75 -6.1875,-0.75 -7.78125,0 -15.375,4.125 -7.59375,4.03125 -13.78125,10.40625 -6.5625,6 -11.625,14.8125 -4.96875,8.8125 -7.78125,19.40625 -2.8125,10.5 -2.8125,20.71875 0,5.34375 0.9375,11.71875 3.46875,17.4375 12.75,30.84375 9.28125,13.3125 23.71875,22.125 12,7.6875 25.3125,7.6875 10.5,0 20.15625,-4.3125 9.65625,-4.3125 18.65625,-11.0625 -4.21875,8.25 -7.6875,11.90625 -5.4375,7.125 -12.75,12 -7.3125,4.78125 -15.84375,7.6875 -8.4375,2.90625 -17.625,4.21875 -9.09375,1.21875 -18.84375,1.21875 z m -35.53125,-18.375 q -2.343752,-1.59375 -4.875002,-3.28125 -2.4375,-1.78125 -4.3125,-3.75 -1.875,-2.0625 -2.34375,-4.5 1.59375,-0.9375 3.46875,-0.9375 2.71875,0 4.03125,1.3125 5.531252,7.6875 15.000002,10.3125 9.46875,2.53125 21.65625,2.71875 -4.6875,-4.6875 -7.03125,-6.84375 -2.25,-2.25 -5.8125,-4.21875 -0.65625,-0.46875 -3.5625,-1.78125 -2.90625,-1.3125 -3.75,-1.875 l -6.9375,-1.21875 -1.875,-4.59375 q 0.375,-1.875 5.53125,-1.875 2.71875,0.5625 9.65625,5.4375 6.9375,4.875 17.15625,12.46875 10.3125,7.5 13.125,9.09375 -6.75,2.34375 -14.53125,2.34375 -16.59375,0 -34.59375,-8.8125 z m 2.53125,4.21875 q 11.25,3.5625 15.84375,4.875 4.59375,1.3125 11.0625,2.53125 6.5625,1.125 13.03125,1.21875 2.625,0 10.96875,-1.3125 8.34375,-1.3125 16.875,-4.03125 8.53125,-2.8125 12.46875,-7.3125 -8.15625,3.65625 -17.90625,3.65625 -11.4375,0 -21.84375,-5.4375 -15.84375,-9.1875 -27.09375,-23.34375 -11.25,-14.25 -15.75,-32.0625 -2.156252,-8.34375 -2.156252,-17.90625 0,-15.1875 5.437502,-30 5.53125,-14.8125 14.71875,-25.3125 3.375,-4.6875 6.46875,-7.875 3.1875,-3.28125 9.09375,-9 7.3125,-5.0625 12.5625,-7.875 5.34375,-2.90625 11.4375,-2.90625 2.90625,0 5.4375,0.84375 7.6875,2.90625 14.8125,8.90625 7.21875,5.90625 12.84375,13.125 5.625,7.21875 10.125,15 l 13.875,-37.875 q -4.875,-0.1875 -15.28125,-0.9375 -10.40625,-0.84375 -18.9375,-1.5 -8.4375,-0.75 -15.65625,-1.125 -7.125,-0.46875 -15.65625,-0.46875 -19.03125,0 -34.875,3.9375 -15.750002,3.84375 -28.312502,13.59375 -8.25,6.375 -14.53125,13.96875 -6.1875,7.5 -10.96875,16.96875 -4.6875,9.46875 -7.03125,19.78125 -2.34375,10.3125 -2.34375,21.84375 0.84375,12.375 5.0625,24 4.3125,11.53125 11.15625,21.5625 6.9375,9.9375 15.75,17.71875 8.90625,7.6875 19.312502,12.75 z m 18,-7.125 q -6.75,0 -11.34375,-0.75 -3.75,-1.5 -5.90625,-3.84375 -2.0625,-2.4375 -4.125,-6.28125 -1.968752,-3.84375 -3.656252,-7.3125 -1.59375,-3.5625 -3.75,-6 -0.65625,0.1875 -0.84375,0.375 -0.1875,0.1875 -0.28125,0.65625 -0.09375,0.46875 -0.1875,0.9375 -0.09375,0.46875 -0.28125,1.3125 -2.625,0 -3,-0.375 -1.03125,-2.0625 -1.03125,-4.03125 0,-4.96875 3.28125,-7.3125 2.8125,0 4.875,3.65625 2.0625,3.65625 5.062502,10.59375 3,6.9375 5.71875,10.6875 2.8125,3.65625 6.65625,3.65625 2.34375,0 4.03125,-0.9375 0.5625,0.65625 2.625,2.34375 2.15625,1.6875 2.15625,2.625 z M 94.705078,285.39407 q -13.03125,-1.125 -22.21875,-9.75 -2.53125,-3.375 -4.78125,-7.03125 -2.15625,-3.65625 -3.5625,-7.6875 -1.3125,-4.03125 -1.3125,-8.71875 1.125,-0.75 2.15625,-0.75 0.84375,0 2.53125,0.75 1.03125,1.21875 1.3125,3.46875 0.375,2.25 0.75,4.6875 0.375,2.4375 1.3125,3.9375 7.6875,13.875 23.0625,15.5625 0,-0.1875 1.03125,1.6875 1.125,1.875 1.125,2.71875 0,1.125 -1.40625,1.125 z m 16.781252,-8.625 q -0.75,-0.0937 -1.40625,-0.0937 -0.5625,-0.0937 -1.5,-0.0937 -2.25,-5.15625 -6.28125,-8.625 -4.031252,-3.5625 -10.500002,-7.78125 -6.46875,-4.21875 -8.8125,-6.28125 0.375,-1.59375 1.21875,-2.4375 3.28125,0.9375 5.34375,2.25 2.0625,1.3125 5.71875,4.03125 3.75,2.71875 5.812502,4.03125 4.96875,4.78125 7.6875,8.15625 2.71875,3.375 2.71875,6.84375 z m -30.000002,-8.25 q -1.125,-0.1875 -3.46875,-2.0625 -4.59375,-3.375 -4.59375,-9.28125 0,-2.71875 0.65625,-5.15625 0.65625,-2.53125 2.25,-7.21875 1.6875,-4.78125 2.25,-6.84375 0,-1.59375 -0.46875,-2.90625 -0.46875,-1.3125 -1.40625,-1.3125 -1.3125,0.9375 -2.90625,3.46875 -1.5,2.4375 -2.90625,3.28125 l -2.25,-2.53125 q 1.96875,-3.65625 3.28125,-6.1875 1.40625,-2.625 3.09375,-4.6875 1.6875,-2.15625 4.40625,-3.65625 0.1875,0.1875 0.75,0.75 0.5625,0.5625 0.5625,0.5625 3.09375,5.15625 3.09375,11.15625 0,8.34375 -5.8125,20.34375 0,5.53125 2.15625,6.1875 0.75,0.375 1.125,0.375 1.78125,0 2.90625,-3.28125 0.9375,0.375 1.59375,0.65625 0.75,0.28125 1.03125,0.5625 0.28125,0.28125 0.46875,1.03125 -1.96875,6.28125 -5.8125,6.75 z m 10.40625,-16.875 q -0.84375,0.5625 -1.03125,0.5625 -0.09375,0 -0.84375,-0.65625 -0.65625,-0.75 -1.96875,-1.5 -0.375,-0.375 -0.375,-0.9375 0,-0.75 0.84375,-2.15625 0.84375,-1.40625 1.03125,-2.25 1.78125,-4.59375 1.78125,-8.0625 0,-4.59375 -2.0625,-8.90625 -1.96875,-4.3125 -5.25,-8.15625 -3.1875,-3.9375 -7.125,-8.0625 1.03125,-1.96875 1.6875,-2.15625 3.84375,1.125 7.6875,4.96875 3.84375,3.84375 6.1875,8.34375 3.09375,7.3125 3.09375,14.90625 0,7.96875 -3.65625,14.0625 z m -18.65625,-5.4375 q -0.46875,1.875 -0.65625,2.53125 -0.09375,0.65625 -0.375,1.03125 -0.28125,0.28125 -1.125,0.75 -6.28125,-3.1875 -10.21875,-6.65625 -3.84375,-3.46875 -5.90625,-8.71875 -0.9375,-6.09375 -0.9375,-11.71875 0,-9.28125 2.53125,-16.875 2.53125,-7.6875 8.0625,-12.5625 l 1.3125,6.375 q -6.65625,10.5 -6.65625,22.6875 0,4.21875 0.75,7.875 1.6875,5.0625 4.875,8.53125 3.28125,3.46875 8.34375,6.75 z m -5.71875,-19.96875 q -0.1875,0.0937 -0.46875,0.1875 -0.1875,0 -0.375,0.0937 -0.75,-2.90625 -0.75,-6 0,-5.53125 2.34375,-9.84375 2.4375,-4.3125 6.9375,-9.84375 4.5,-5.625 6.84375,-9.46875 -0.1875,-1.40625 -1.5,-1.40625 -1.03125,0.1875 -2.34375,0.75 -1.21875,0.46875 -2.0625,0.84375 -0.28125,-0.84375 -0.5625,-1.6875 -0.28125,-0.84375 -0.375,-1.40625 0,-1.03125 0.5625,-1.875 0.75,0 4.40625,-0.9375 3.65625,-1.03125 5.71875,-1.03125 1.875,0 2.53125,0.9375 -0.84375,6.375 -3.9375,11.0625 -3,4.59375 -9.09375,11.25 -4.03125,5.0625 -4.03125,7.875 0,0.5625 0.375,1.6875 1.21875,0 2.53125,-0.1875 1.3125,-0.1875 1.6875,-0.1875 0.5625,0 1.125,0.5625 0.75,0.84375 0.75,1.59375 z m 20.53125,-15.28125 h -0.75 q -1.125,-1.125 -1.875,-1.6875 -0.75,-0.65625 -1.03125,-1.21875 1.125,-1.125 1.6875,-2.15625 5.15625,-4.3125 7.3125,-11.53125 2.15625,-7.3125 2.15625,-16.3125 0,-4.78125 -0.1875,-6.84375 0.65625,0 1.875,-0.375 1.21875,-0.375 1.6875,-0.375 0.75,0 1.03125,0.5625 1.500002,3.46875 1.500002,8.25 0,2.71875 -1.3125,12.09375 -2.062502,6.65625 -4.875002,11.4375 -2.8125,4.6875 -7.21875,8.15625 z m -14.25,-13.3125 q -0.1875,0.84375 -1.3125,1.96875 -1.125,1.125 -1.78125,1.125 -0.9375,0 -0.9375,-1.875 -1.6875,-6.5625 -1.6875,-11.34375 0,-4.59375 0.9375,-7.875 2.4375,-7.125 8.71875,-13.5 6.28125,-6.375 13.59375,-10.6875 -0.84375,3.09375 -4.21875,6.65625 -3.375,3.46875 -7.03125,7.21875 -3.65625,3.65625 -4.6875,6.65625 -3.09375,7.3125 -3.09375,13.59375 0,4.125 1.5,8.0625 z m 9.84375,-17.4375 q -0.65625,-0.375 -1.96875,-0.84375 -1.21875,-0.46875 -1.78125,-1.21875 -0.46875,-0.84375 -0.46875,-2.90625 2.15625,-4.96875 6.5625,-7.5 4.5,-2.53125 12.65625,-5.25 8.156252,-2.8125 11.437502,-4.78125 0.75,-0.375 0.75,-2.0625 -0.46875,-0.46875 -1.40625,-1.125 -0.84375,-0.65625 -1.40625,-0.65625 4.6875,-1.6875 6.84375,-1.6875 2.4375,0 3.65625,1.5 -2.90625,5.4375 -6.65625,7.5 -3.65625,2.0625 -12.750002,5.90625 -9.09375,3.84375 -12.46875,7.59375 0.9375,0.28125 2.71875,0.84375 1.875,0.46875 2.34375,0.46875 0,1.5 -0.65625,2.90625 -0.5625,1.3125 -1.3125,1.3125 z m 117.843752,-7.125 v 0.1875 q -2.0625,-2.4375 -3.375,-3.9375 -1.21875,-1.5 -2.625,-3.75 -1.40625,-2.25 -2.0625,-4.125 -0.5625,-1.96875 -0.5625,-4.3125 0.75,-0.375 0.9375,-0.375 0.46875,0 0.84375,0.375 0.375,0.28125 0.9375,0.375 0.65625,2.25 1.125,3.9375 0.46875,1.6875 1.21875,2.625 0.84375,0.9375 2.4375,0.9375 1.125,-2.53125 1.125,-5.53125 0,-2.25 -0.46875,-5.25 -0.46875,-3.09375 -0.46875,-3.1875 0,-1.59375 0.9375,-1.59375 2.53125,3.75 2.53125,9.65625 0,5.0625 -2.53125,13.96875 z m -96.9375,-0.75 q -0.75,0 -0.9375,-0.5625 -0.1875,-0.65625 -0.1875,-2.90625 8.25,-3.1875 17.8125,-12.46875 0.5625,-0.84375 4.03125,-3.9375 3.46875,-3.09375 4.03125,-5.0625 -0.5625,-1.3125 -0.65625,-1.5 -0.0937,-0.28125 -0.65625,-0.28125 -4.96875,0.9375 -9.375,1.78125 -4.3125,0.75 -8.34375,2.0625 -3.9375,1.3125 -7.21875,3.65625 -3.187502,2.34375 -4.875002,6.1875 -1.875,1.125 -4.03125,1.125 0,-4.96875 6.000002,-10.96875 6.75,-3.84375 15.28125,-5.71875 8.53125,-1.96875 17.15625,-1.96875 4.40625,0 8.25,0.65625 -3.375,4.96875 -10.96875,11.625 -3.84375,3.46875 -8.25,7.5 -4.40625,3.9375 -8.25,6.5625 -3.84375,2.53125 -8.8125,4.21875 z m 90.1875,-18.28125 q -4.3125,-1.5 -7.3125,-2.53125 -3,-1.125 -5.4375,-2.25 -2.4375,-1.125 -4.96875,-2.71875 -2.53125,-1.6875 -4.6875,-3.75 4.78125,-1.21875 11.34375,-1.21875 6.375,0 10.3125,1.78125 -0.375,0.0937 -0.75,0.5625 -0.375,0.46875 -0.5625,0.75 -4.59375,-0.5625 -9.65625,-0.5625 -0.84375,0 -1.59375,0.46875 -0.65625,0.46875 -0.65625,1.21875 l 17.25,6.75 q 0.5625,0.5625 0.5625,0.9375 -0.1875,0.5625 -3.84375,0.5625 z m 16.3125,-9.75 q 0,2.53125 -1.78125,4.78125 -1.78125,2.25 -4.125,2.90625 v -2.53125 q 0.1875,-0.75 1.3125,-1.875 1.125,-1.125 1.21875,-1.78125 0,-0.84375 -1.03125,-1.3125 -4.78125,0 -10.3125,4.21875 -2.34375,-0.375 -2.34375,-0.75 0,-0.5625 1.21875,-1.78125 4.21875,-3 9.9375,-3 3.09375,0 5.90625,1.125 z"
         style="fill:#ffffff"
         id="path830" />
      <path
         d="m 416.08008,171.58157 q 0.5625,-1.40625 0.5625,-3.46875 0,-5.25 -2.90625,-9.5625 -2.4375,-3.46875 -6.46875,-4.6875 -4.03125,-1.3125 -10.96875,-1.3125 -4.21875,1.6875 -6.75,3.46875 -2.53125,1.6875 -4.03125,4.78125 0.28125,0.46875 0.84375,0.84375 0.65625,0.375 1.3125,0.65625 0.65625,0.1875 1.3125,0.46875 5.71875,-5.0625 11.53125,-5.0625 3.09375,0 5.15625,1.03125 6,4.21875 6,8.25 0,0.65625 -0.28125,1.59375 -0.28125,0.9375 -0.28125,1.03125 0.28125,0.75 1.875,1.40625 1.6875,0.65625 2.15625,1.125 0.28125,-0.1875 0.46875,-0.28125 0.28125,-0.1875 0.46875,-0.28125 z m -23.4375,2.90625 q 0.75,0 0.9375,-0.46875 1.125,-2.15625 2.34375,-5.15625 -8.25,-2.90625 -13.59375,-7.21875 -5.25,-4.3125 -6.9375,-11.4375 5.15625,-3.5625 21.09375,-3.5625 4.3125,0.46875 6.09375,0.9375 1.78125,0.46875 1.78125,2.625 1.21875,0.46875 3.28125,0.84375 0.5625,0 1.125,-2.15625 0.75,-1.5 0.75,-2.90625 0,-1.78125 -1.6875,-2.25 -8.0625,-1.96875 -17.4375,-1.96875 -12.75,0 -21.375,3.65625 -0.0937,0.1875 -0.28125,0.75 -0.1875,0.46875 -0.28125,0.65625 0,2.34375 0.65625,4.59375 0.65625,2.15625 1.875,4.6875 1.21875,2.53125 1.875,3.75 2.0625,3.5625 6,6.9375 2.15625,1.875 4.125,3 1.96875,1.125 4.5,2.34375 2.625,1.21875 5.15625,2.34375 z m 4.78125,15.65625 q 6.46875,-0.46875 12.09375,-6.65625 0,-0.375 0.1875,-0.75 0.28125,-0.46875 0.46875,-0.65625 -0.75,-1.3125 -3.28125,-2.0625 -0.65625,1.125 -2.625,2.8125 -1.875,1.59375 -3.375,1.96875 -1.5,0 -1.5,-2.71875 1.96875,-7.78125 2.8125,-11.34375 0.9375,-3.65625 2.15625,-8.625 0,-1.125 -3.46875,-1.125 -1.3125,4.40625 -2.71875,9 -1.3125,4.5 -2.25,9.46875 -0.9375,4.96875 -0.9375,9.375 1.3125,1.3125 2.4375,1.3125 z m 34.40625,17.34375 q 1.3125,-2.0625 1.3125,-6 -0.1875,-4.40625 -3,-13.03125 -3.09375,-6.375 -8.71875,-10.125 -5.625,-3.84375 -13.78125,-6.75 h -1.96875 q -1.125,3.375 -1.125,4.78125 18.9375,7.40625 22.125,20.15625 0.375,3.09375 0.375,8.8125 0.0937,0.75 1.875,1.5 1.875,0.65625 2.90625,0.65625 z m -22.125,-2.71875 q -2.15625,-1.40625 -5.25,-3.1875 -3.09375,-1.78125 -5.0625,-3.09375 -1.875,-1.40625 -3.84375,-3.65625 -2.34375,-2.25 -3.65625,-5.25 -1.21875,-3.09375 -2.34375,-7.875 -1.125,-4.78125 -1.875,-6.84375 -0.65625,-0.28125 -1.3125,-0.5625 -0.65625,-0.28125 -1.40625,-0.46875 -0.65625,-0.1875 -1.5,-0.5625 0,7.40625 2.34375,14.34375 2.4375,6.84375 5.53125,11.0625 4.125,4.125 7.3125,6.09375 3.28125,1.875 9.9375,4.96875 0.46875,-0.5625 0.65625,-1.40625 0.28125,-0.84375 0.28125,-1.78125 0.0937,-1.03125 0.1875,-1.78125 z m 8.0625,21.9375 q 7.3125,-4.40625 8.90625,-8.71875 -0.375,-0.46875 -1.59375,-0.84375 -1.125,-0.46875 -1.5,-0.65625 -0.375,0.28125 -1.21875,1.125 -0.75,0.75 -1.59375,1.59375 -0.75,0.84375 -1.3125,1.3125 -0.5625,0.375 -1.21875,0.375 -1.96875,-2.625 -1.96875,-6.9375 0,-2.0625 1.03125,-8.34375 1.125,-6.28125 1.125,-9.09375 0,-5.625 -2.90625,-8.8125 -0.28125,-0.1875 -1.21875,-0.28125 -0.9375,-0.0937 -1.5,-0.0937 -4.21875,1.78125 -6.5625,3.84375 -2.34375,2.0625 -3.9375,6.09375 0.0937,0.375 0.46875,0.75 0.375,0.28125 1.125,0.75 0.75,0.375 1.03125,0.65625 0.84375,0 1.21875,-0.375 0.375,-0.46875 0.65625,-1.125 0.28125,-0.65625 0.65625,-1.40625 1.40625,-2.0625 3.65625,-2.0625 1.6875,2.4375 1.6875,7.03125 0,2.0625 -0.5625,6.75 -0.5625,4.6875 -0.5625,6.9375 0,7.78125 5.15625,11.53125 z m 7.3125,16.875 q 1.96875,-0.9375 1.96875,-3.09375 0,-1.125 -0.375,-1.6875 -6,-3.375 -10.6875,-6.9375 -4.59375,-3.65625 -7.96875,-8.34375 -3.28125,-4.6875 -4.40625,-10.875 0,-2.34375 -0.75,-2.90625 -0.375,-0.1875 -1.125,-0.65625 -0.75,-0.5625 -1.5,-0.84375 -0.65625,-0.375 -1.21875,-0.375 -1.21875,0 -1.21875,0.375 1.125,11.90625 6.5625,19.40625 4.125,5.25 8.90625,8.8125 4.875,3.46875 11.8125,7.125 z m 25.03125,0.5625 q 0.75,-3.375 0.75,-5.34375 0,-6.09375 -3,-12.1875 -3,-6.1875 -7.03125,-10.6875 -4.875,-3.375 -9.75,-5.53125 -4.875,-2.15625 -10.40625,-2.15625 -0.5625,0 -0.84375,0.5625 -0.1875,0.5625 -0.28125,1.3125 0,0.65625 -0.1875,1.59375 18.65625,5.90625 23.25,16.5 2.25,6.28125 2.25,13.03125 0.46875,2.90625 5.25,2.90625 z m -5.25,11.15625 q -1.3125,-2.15625 -4.40625,-2.15625 -1.78125,2.71875 -2.625,3.65625 -0.84375,0.9375 -2.53125,0.9375 -0.375,-0.28125 -1.03125,-0.65625 -0.5625,-0.46875 -0.84375,-0.9375 -0.28125,-0.46875 -0.28125,-0.84375 0.28125,0 1.3125,-7.59375 1.03125,-7.59375 1.03125,-12.1875 0,-2.53125 -0.1875,-3.84375 -0.9375,-7.59375 -4.59375,-10.21875 -1.6875,0.46875 -3.1875,1.59375 -1.40625,1.125 -2.53125,2.4375 -1.03125,1.21875 -2.34375,3 -1.21875,1.78125 -2.15625,3.1875 0,0.5625 0.84375,1.125 0.9375,0.5625 1.5,1.125 1.21875,0 2.71875,-2.25 1.59375,-2.34375 2.4375,-2.71875 0.75,0 1.3125,0.5625 0.84375,2.34375 0.84375,4.78125 0,3.375 -1.40625,9.84375 -1.3125,6.46875 -1.3125,9.375 0,7.21875 5.34375,10.40625 7.875,0 12.09375,-8.625 z m 23.25,22.96875 q 0,-15.9375 -10.96875,-25.125 -2.8125,-2.25 -6,-3.9375 -3.1875,-1.6875 -7.03125,-3.28125 -3.84375,-1.6875 -6.75,-2.90625 -0.375,1.03125 -0.84375,2.0625 -0.375,0.9375 -0.84375,1.96875 3.5625,2.0625 8.15625,4.59375 4.59375,2.4375 8.34375,5.25 3.84375,2.71875 6.5625,6.5625 2.71875,3.75 3.46875,8.71875 0,2.90625 0.75,3.65625 0,0.1875 2.34375,1.3125 2.4375,1.125 2.8125,1.125 z m -24.9375,1.21875 q 1.6875,-0.375 1.6875,-4.96875 -18.46875,-7.78125 -22.21875,-20.8125 -1.03125,-2.53125 -1.5,-5.8125 -0.46875,-3.28125 -0.84375,-4.3125 -1.3125,-0.75 -1.96875,-1.03125 -0.5625,-0.375 -1.875,-1.125 -1.125,2.0625 -1.125,4.21875 0,3.09375 2.0625,9 2.15625,5.8125 2.34375,6.9375 4.03125,6.65625 9.375,10.59375 5.4375,3.9375 14.0625,7.3125 z m 22.03125,9.5625 q 0,-1.96875 -3.65625,-2.4375 -0.65625,0.375 -2.25,1.96875 -1.5,1.59375 -2.90625,2.53125 -1.3125,0.84375 -2.90625,0.84375 -2.0625,-0.84375 -2.0625,-2.15625 0,-3.375 0.84375,-9.375 0.84375,-6 0.84375,-8.625 0,-5.90625 -4.03125,-8.8125 -1.5,-1.03125 -4.03125,-1.03125 -3.5625,1.6875 -5.34375,6.375 2.0625,1.40625 3.09375,1.5 1.6875,-2.25 2.625,-2.25 1.3125,0 2.34375,2.0625 0,3.84375 -0.84375,9.65625 -0.84375,5.8125 -0.84375,7.5 0,5.25 1.6875,8.0625 3,2.4375 5.90625,2.4375 5.53125,0 11.53125,-8.25 z m -15.375,15.1875 q 7.03125,-0.1875 12.75,-0.375 5.71875,-0.1875 14.90625,-0.375 2.15625,-1.3125 2.15625,-4.78125 0,-1.5 -0.375,-3.09375 -0.28125,-1.6875 -0.375,-2.34375 -3.84375,-9.9375 -19.40625,-16.125 h -3.28125 q -0.9375,1.875 -0.9375,3.84375 14.25,4.40625 18.5625,14.0625 0.46875,0.9375 0.46875,1.5 0,1.96875 -1.78125,2.34375 -7.03125,1.3125 -13.21875,1.3125 -8.71875,0 -13.875,-2.53125 -2.53125,-3.28125 -3.84375,-7.21875 -1.3125,-3.9375 -1.3125,-9.09375 -0.28125,-0.75 -1.6875,-1.3125 -1.40625,-0.5625 -2.53125,-0.5625 -0.1875,1.3125 -0.1875,4.21875 0,10.40625 5.71875,16.875 1.59375,1.59375 3.84375,2.625 2.34375,1.03125 4.40625,1.03125 z m 95.0625,-133.03125 q 0.1875,0.0937 0.375,0.28125 0.1875,0.0937 0.375,0.28125 0.1875,-0.0937 1.875,-0.84375 1.78125,-0.84375 2.15625,-1.875 0,-0.5625 -0.28125,-1.40625 -0.28125,-0.84375 -0.28125,-1.03125 0,-4.3125 6,-8.34375 2.0625,-0.9375 5.34375,-0.9375 6.09375,0 11.34375,4.78125 1.03125,-0.375 1.96875,-0.84375 1.03125,-0.46875 1.5,-1.21875 -2.625,-4.875 -10.96875,-8.0625 -6.84375,0 -10.78125,1.21875 -3.9375,1.21875 -6.46875,4.875 -2.90625,5.25 -2.90625,9.46875 0,2.0625 0.75,3.65625 z m 23.4375,2.625 q 5.625,-2.625 8.34375,-4.125 2.8125,-1.5 5.53125,-3.75 3.75,-3.09375 5.71875,-6.65625 0.9375,-1.875 1.875,-3.9375 1.03125,-2.0625 1.6875,-4.3125 0.65625,-2.34375 0.65625,-5.0625 0.0937,0 -0.5625,-1.3125 -8.625,-3.65625 -20.53125,-3.65625 -10.3125,0 -18.28125,2.34375 -1.5,0.46875 -1.5,2.0625 0,1.40625 0.75,2.90625 0.46875,2.34375 1.125,2.34375 0.84375,-0.1875 1.78125,-0.46875 0.9375,-0.28125 1.5,-0.375 0,-2.0625 1.96875,-2.71875 1.96875,-0.65625 5.71875,-1.125 h 4.78125 q 11.625,0 16.3125,3.46875 -1.59375,7.3125 -6.84375,11.71875 -5.15625,4.3125 -13.5,7.3125 1.21875,2.4375 2.34375,4.96875 0.0937,0.28125 0.46875,0.375 0.46875,0 0.65625,0 z m -4.59375,15.9375 q 0.375,-0.0937 2.53125,-1.5 0,-4.875 -1.03125,-9.09375 -0.9375,-4.3125 -2.90625,-10.40625 -1.875,-6.09375 -2.4375,-8.34375 -3.46875,0 -3.46875,1.3125 1.125,3.9375 2.53125,9.375 1.40625,5.4375 2.625,10.40625 0,2.90625 -1.5,2.90625 -1.5,-0.5625 -3.375,-1.96875 -1.78125,-1.5 -2.53125,-2.8125 -2.625,0.65625 -3.28125,2.0625 0.1875,0.0937 0.375,0.46875 0.1875,0.28125 0.1875,0.9375 6.1875,6.1875 12.28125,6.65625 z m -34.40625,17.53125 q 0.75,0 2.71875,-0.75 2.0625,-0.84375 2.15625,-1.40625 0,-5.71875 0.1875,-8.8125 3.09375,-12.75 22.03125,-20.53125 0,-0.9375 -0.28125,-1.78125 -0.28125,-0.9375 -0.65625,-1.78125 -0.375,-0.9375 -0.375,-1.03125 h -1.78125 q -8.15625,2.90625 -13.78125,6.75 -5.625,3.75 -8.625,10.125 -2.71875,8.0625 -2.90625,13.21875 0,3.65625 1.3125,6 z m 22.125,-2.90625 q 0.0937,0.75 0.0937,1.78125 0.0937,1.03125 0.28125,1.78125 0.28125,0.65625 0.75,1.21875 7.875,-3.84375 10.875,-5.625 3,-1.78125 6.375,-5.53125 3,-4.125 5.34375,-11.15625 2.34375,-7.03125 2.34375,-14.34375 -1.125,0.46875 -2.0625,0.84375 -0.84375,0.28125 -2.34375,0.84375 -0.9375,3.1875 -1.875,7.40625 -0.84375,4.21875 -2.15625,7.5 -1.3125,3.1875 -3.46875,5.0625 -1.875,2.0625 -4.03125,3.75 -2.15625,1.6875 -5.0625,3.375 -2.90625,1.6875 -5.0625,3.09375 z m -7.875,21.84375 h 0.9375 q 4.96875,-3.46875 4.96875,-11.25 0,-2.4375 -0.5625,-7.21875 -0.5625,-4.78125 -0.5625,-6.84375 0,-4.6875 1.5,-6.9375 2.0625,0 3.84375,2.15625 0.1875,0.1875 0.5625,1.125 0.46875,0.84375 0.75,1.3125 0.375,0.46875 1.21875,0.46875 0.46875,-0.46875 0.9375,-0.75 0.5625,-0.28125 0.9375,-0.65625 0.46875,-0.46875 0.65625,-0.9375 -1.59375,-3.9375 -3.84375,-5.90625 -2.25,-2.0625 -6.75,-3.84375 -1.875,0 -2.53125,0.5625 -2.8125,3 -2.8125,8.625 0,2.8125 1.125,8.90625 1.125,6.09375 1.125,8.90625 0,3.84375 -1.875,6.5625 -0.84375,0 -1.59375,-0.46875 -0.65625,-0.5625 -2.25,-2.15625 -1.5,-1.59375 -1.78125,-1.78125 -0.1875,0.1875 -1.40625,0.75 -1.125,0.46875 -1.40625,0.9375 1.5,4.3125 8.8125,8.4375 z m -7.125,16.96875 q 7.3125,-3.9375 12,-7.40625 4.78125,-3.5625 8.53125,-8.71875 6.375,-6.65625 6.375,-19.21875 -0.75,-0.375 -1.125,-0.375 -0.46875,0 -3.84375,1.6875 -0.65625,0.5625 -0.65625,2.90625 -1.5,9 -7.59375,15 -6.09375,6 -15.375,11.53125 -0.375,1.125 -0.375,1.5 0,2.4375 2.0625,3.09375 z m -24.9375,0.75 q 4.5,0 5.15625,-2.90625 0,-6.9375 2.15625,-13.03125 4.5,-10.875 23.25,-16.5 -0.0937,-0.375 -0.28125,-1.40625 -0.1875,-1.125 -0.375,-1.59375 -0.0937,-0.46875 -0.9375,-0.46875 -8.71875,0 -19.96875,7.6875 -4.125,4.6875 -6.9375,10.78125 -2.8125,6 -2.8125,11.90625 0,1.96875 0.75,5.53125 z m 5.15625,11.15625 q 4.875,8.625 12.28125,8.625 5.25,-3.28125 5.25,-10.21875 0,-3.1875 -1.5,-10.125 -1.40625,-7.03125 -1.40625,-9.46875 0,-2.71875 0.75,-4.59375 0.5625,-0.5625 1.5,-0.5625 0.46875,0.1875 2.25,2.53125 1.78125,2.25 3,2.25 2.0625,-1.59375 2.0625,-2.25 -2.625,-4.03125 -4.875,-6.5625 -2.15625,-2.625 -5.25,-3.65625 -3.65625,2.71875 -4.59375,10.40625 0,5.34375 1.125,12.84375 1.125,7.5 1.125,10.59375 0,1.21875 -1.875,2.625 -1.3125,0 -2.25,-0.75 -0.9375,-0.75 -1.78125,-1.96875 -0.84375,-1.3125 -1.21875,-1.875 -3.28125,0 -4.59375,2.15625 z m -22.875,23.15625 q 0.65625,0 2.8125,-1.03125 2.25,-1.125 2.25,-1.40625 0.75,-0.75 0.75,-3.65625 0.75,-4.96875 3.375,-8.71875 2.71875,-3.84375 6.09375,-6.375 3.46875,-2.625 8.53125,-5.4375 5.15625,-2.90625 8.25,-4.78125 -0.375,-1.03125 -0.84375,-2.0625 -0.375,-1.125 -0.84375,-2.15625 -0.375,0.1875 -5.71875,2.625 -5.25,2.34375 -8.4375,4.125 -3.09375,1.6875 -5.625,3.75 -10.59375,9.09375 -10.59375,25.125 z m 25.03125,1.03125 q 16.125,-6.375 23.25,-18.09375 0.28125,-1.78125 2.25,-7.3125 1.96875,-5.53125 1.96875,-8.4375 0,-2.15625 -1.21875,-4.40625 -2.8125,1.59375 -3.84375,2.15625 -0.375,1.03125 -0.84375,4.3125 -0.375,3.28125 -1.40625,5.8125 -2.0625,7.5 -7.78125,12.28125 -5.625,4.78125 -14.34375,8.625 0,2.625 0.28125,3.75 0.375,1.03125 1.6875,1.3125 z m -22.125,9.75 q 6,8.25 11.71875,8.25 2.8125,0 6,-2.4375 1.6875,-3 1.6875,-7.3125 0,-3 -1.03125,-8.71875 -0.9375,-5.71875 -1.125,-9.1875 1.125,-2.25 2.34375,-2.25 1.03125,0 2.71875,2.25 0.9375,-0.0937 1.6875,-0.5625 0.75,-0.5625 1.40625,-0.9375 -1.96875,-4.875 -5.4375,-6.375 -2.4375,0 -4.03125,1.21875 -3.84375,2.8125 -3.84375,8.625 0,1.21875 0.84375,7.59375 0.9375,6.375 0.9375,10.59375 0,0.75 -0.28125,1.03125 -0.28125,0.28125 -0.84375,0.5625 -0.5625,0.28125 -1.03125,0.5625 -2.25,0 -4.875,-2.53125 -2.625,-2.53125 -3.1875,-2.8125 -3.65625,0.46875 -3.65625,2.4375 z m 15.5625,15 q 3.1875,-0.28125 7.6875,-2.90625 5.90625,-5.15625 5.90625,-16.5 0,-3.65625 -0.1875,-5.53125 -1.03125,0 -2.34375,0.65625 -1.21875,0.5625 -1.6875,1.40625 0,10.3125 -5.15625,16.3125 -5.8125,2.71875 -14.34375,2.71875 -6,0 -12.75,-1.3125 -1.5,0 -1.5,-2.15625 0,-1.125 0.375,-1.6875 4.3125,-9.75 18.46875,-14.0625 0,-2.0625 -1.03125,-3.84375 h -3.375 q -15.46875,6.1875 -19.21875,16.3125 -0.375,2.8125 -0.375,5.25 0,3.75 1.875,4.96875 6.9375,0.0937 12.65625,0.1875 5.8125,0 15,0.1875 z M 316.23633,171.76907 q 0.5625,-0.9375 0.5625,-3.65625 0,-5.4375 -2.4375,-9.375 -2.71875,-4.125 -6.84375,-5.25 -4.125,-1.125 -10.5,-1.125 -8.34375,2.8125 -10.875,8.0625 0.46875,0.5625 0.9375,0.9375 0.46875,0.28125 0.9375,0.375 0.46875,0.0937 1.5,0.5625 6.46875,-4.78125 11.53125,-4.78125 2.625,0 5.4375,1.21875 5.53125,4.3125 5.53125,8.25 0,0.9375 -0.28125,1.78125 -0.28125,0.84375 -0.28125,0.84375 0.375,0.9375 1.78125,1.5 1.40625,0.5625 2.25,1.40625 0.1875,-0.1875 0.375,-0.375 0.1875,-0.1875 0.375,-0.375 z m -23.4375,2.4375 q 0.9375,0 1.125,-0.375 1.125,-2.15625 2.34375,-5.15625 -17.25,-6.28125 -19.96875,-19.03125 4.125,-3.1875 14.8125,-3.1875 h 6.28125 q 1.78125,0.1875 3.65625,0.5625 1.875,0.375 2.90625,1.03125 1.125,0.65625 1.125,2.15625 1.125,0.375 1.59375,0.5625 0.46875,0.0937 1.6875,0.46875 0.65625,0 1.125,-2.34375 0.84375,-1.6875 0.84375,-2.90625 0,-1.5 -1.59375,-2.0625 -8.71875,-2.53125 -19.59375,-2.53125 -11.8125,0 -19.21875,3.09375 -0.0937,0.375 -0.28125,0.75 -0.0937,0.28125 -0.1875,0.46875 -0.0937,0.1875 -0.0937,0.28125 0,3.75 0.84375,6.1875 0.9375,2.34375 3.1875,7.125 2.53125,4.21875 5.8125,6.65625 3,2.625 6.5625,4.59375 3.5625,1.875 7.03125,3.65625 z m 4.40625,15.75 q 6.09375,-0.1875 12.28125,-6.28125 0,-0.28125 0.1875,-0.84375 0.28125,-0.5625 0.46875,-0.75 -0.84375,-1.125 -3.28125,-1.875 -0.65625,1.125 -2.625,2.71875 -1.96875,1.5 -3.375,1.875 -1.3125,0 -1.3125,-2.90625 3.1875,-12.375 5.34375,-19.78125 0,-1.3125 -3.65625,-1.3125 -0.75,3.28125 -2.71875,9 -1.875,5.625 -2.8125,9.9375 -0.9375,4.21875 -0.9375,8.90625 1.78125,1.3125 2.4375,1.3125 z m 34.03125,18.09375 q 1.6875,-2.90625 1.6875,-6.375 0,-3 -2.8125,-12.65625 -2.90625,-6.46875 -8.34375,-10.21875 -5.34375,-3.75 -13.78125,-7.21875 h -1.875 q -0.28125,0.65625 -0.65625,1.3125 -0.28125,0.65625 -0.5625,1.59375 -0.1875,0.84375 -0.1875,1.875 18.75,7.59375 21.75,20.71875 0.1875,3.09375 0.1875,8.8125 0.1875,0.5625 1.96875,1.40625 1.875,0.75 2.625,0.75 z m -22.125,-3.09375 q -0.5625,-0.46875 -4.21875,-2.71875 -3.5625,-2.25 -5.71875,-3.84375 -2.15625,-1.6875 -3.84375,-3.75 -2.25,-2.15625 -3.46875,-5.25 -1.125,-3.09375 -2.15625,-7.875 -0.9375,-4.875 -1.6875,-7.03125 -2.0625,-0.9375 -4.40625,-1.78125 -0.375,2.25 -0.375,3.65625 0,5.0625 2.25,11.25 2.34375,6.1875 5.4375,10.59375 3.5625,3.9375 6.84375,6.09375 3.28125,2.0625 10.21875,5.4375 1.125,-1.3125 1.125,-4.78125 z m 7.6875,22.125 q 7.40625,-4.21875 9,-8.4375 -0.1875,-0.5625 -1.03125,-0.9375 -0.84375,-0.375 -1.78125,-0.84375 -0.5625,0.375 -2.625,2.4375 -1.96875,1.96875 -3,1.96875 -1.6875,-2.4375 -1.6875,-6.46875 0,-2.25 1.21875,-8.71875 1.3125,-6.46875 1.3125,-9.5625 0,-4.875 -2.90625,-8.4375 -0.46875,-0.46875 -1.3125,-0.46875 -0.75,-0.0937 -1.21875,-0.0937 -4.59375,1.875 -6.84375,3.84375 -2.25,1.96875 -3.84375,5.71875 0.0937,0.65625 0.84375,1.21875 0.84375,0.5625 1.59375,1.125 0.84375,0 1.21875,-0.375 0.375,-0.46875 0.75,-1.21875 0.375,-0.75 0.75,-1.125 1.3125,-2.25 3.65625,-2.25 1.6875,2.8125 1.6875,6.65625 0,2.4375 -0.75,7.59375 -0.75,5.15625 -0.75,7.59375 0,7.125 4.78125,10.78125 z m 6.9375,16.875 q 2.0625,-1.03125 2.0625,-3.28125 0,-0.9375 -0.375,-1.5 -9.375,-5.71875 -15.28125,-11.71875 -5.90625,-6.09375 -7.3125,-14.8125 0,-2.34375 -0.5625,-3.09375 -3.28125,-1.5 -5.0625,-1.5 0,13.125 6.1875,19.59375 3.84375,5.0625 8.53125,8.71875 4.78125,3.5625 11.8125,7.59375 z m 24.9375,1.125 q 0.75,-2.53125 0.75,-5.71875 0,-5.90625 -2.71875,-11.8125 -2.625,-6 -6.65625,-10.875 -5.0625,-3.5625 -9.75,-5.8125 -4.6875,-2.25 -10.03125,-2.25 -0.5625,0 -0.84375,0.46875 -0.28125,0.46875 -0.375,1.3125 -0.0937,0.75 -0.28125,1.6875 18.375,6.375 22.78125,16.875 1.96875,5.90625 1.96875,13.21875 0.28125,1.40625 1.875,2.15625 1.59375,0.75 3.28125,0.75 z m -5.34375,10.96875 q -2.15625,-2.15625 -4.59375,-2.15625 -1.78125,2.71875 -2.625,3.75 -0.75,0.9375 -2.4375,0.9375 -0.65625,-0.65625 -1.40625,-1.3125 -0.65625,-0.75 -0.65625,-1.59375 0,-3.46875 1.3125,-10.59375 1.40625,-7.21875 1.40625,-12.84375 -1.21875,-7.59375 -4.6875,-10.21875 -3.1875,1.03125 -5.25,3.375 -1.96875,2.25 -4.875,6.46875 0,0.9375 2.25,2.25 1.21875,0 2.8125,-2.25 1.6875,-2.25 2.4375,-2.53125 0.75,0 1.3125,0.75 0.75,1.875 0.75,4.21875 0,3 -1.6875,10.21875 -1.59375,7.125 -1.59375,9.75 0,6.65625 5.25,10.21875 7.59375,0 12.28125,-8.4375 z m 22.59375,23.625 q 0,-8.34375 -2.625,-14.53125 -2.53125,-6.28125 -7.6875,-10.875 -3.75,-3.1875 -7.3125,-4.78125 -3.46875,-1.6875 -12.46875,-5.90625 0,0.65625 -0.5625,1.96875 -0.5625,1.3125 -0.9375,2.0625 4.5,2.71875 8.53125,5.15625 4.125,2.34375 7.6875,5.25 3.65625,2.8125 6.1875,6.65625 2.625,3.75 3.28125,8.8125 0,2.90625 0.75,3.65625 1.03125,0.65625 2.8125,1.59375 1.875,0.9375 2.34375,0.9375 z m -25.125,0.5625 q 1.3125,-0.28125 1.59375,-1.125 0.375,-0.84375 0.375,-3.84375 -8.4375,-3.84375 -13.96875,-8.625 -5.53125,-4.875 -7.78125,-12.5625 -0.65625,-1.96875 -1.03125,-5.4375 -0.375,-3.46875 -0.84375,-4.875 -1.03125,-0.5625 -1.96875,-1.125 -0.9375,-0.5625 -1.875,-1.03125 -1.125,2.0625 -1.125,4.59375 0,2.625 1.6875,8.15625 1.78125,5.4375 2.0625,7.40625 2.8125,4.6875 6.1875,8.0625 3.46875,3.28125 7.6875,5.90625 4.21875,2.53125 9,4.5 z m 21.9375,9.9375 q 0,-1.59375 -3.46875,-2.4375 -0.46875,0.28125 -2.25,1.96875 -1.6875,1.59375 -3.09375,2.4375 -1.40625,0.75 -2.90625,0.75 -1.96875,-1.03125 -1.96875,-2.0625 0,-3.46875 0.28125,-6 0.375,-2.53125 1.03125,-6.375 0.65625,-3.84375 0.65625,-6.09375 0,-5.4375 -3.84375,-8.4375 -1.40625,-1.125 -4.03125,-1.125 -3.375,1.3125 -5.4375,6.28125 0.65625,0.375 1.40625,0.9375 0.84375,0.5625 1.6875,0.65625 1.59375,-2.34375 2.71875,-2.34375 1.125,0 2.25,2.34375 0,3 -1.125,9.1875 -1.125,6.1875 -1.125,9 0,4.03125 1.5,6.9375 2.8125,2.4375 6.1875,2.4375 5.90625,0 11.53125,-8.0625 z m -15.5625,15 h 27.65625 q 1.875,-1.40625 1.875,-5.15625 0,-0.9375 -0.1875,-2.71875 -0.1875,-1.78125 -0.1875,-2.25 -3.65625,-10.3125 -19.03125,-16.78125 h -3.1875 q -1.21875,1.78125 -1.21875,3.84375 13.78125,4.5 18.46875,14.4375 0.375,1.125 0.375,1.5 0,2.0625 -1.78125,2.34375 -5.90625,0.9375 -11.625,0.9375 -9.375,0 -15.375,-2.8125 -2.53125,-3.1875 -3.84375,-6.9375 -1.21875,-3.75 -1.21875,-9.46875 -0.28125,-0.84375 -1.59375,-1.40625 -1.21875,-0.65625 -2.4375,-0.65625 -0.375,3.75 -0.375,5.71875 0.28125,10.78125 5.8125,16.3125 3.65625,2.4375 7.875,3.09375 z m 92.53125,2.90625 -81,-168.5625 h 54.09375 l 68.34375,146.625 66.65625,-146.625 h 54.375 l -78.9375,168.75 z m -102.9375,0.1875 -77.53125,-168.75 h 52.78125 l 72.375,168.75 z m 58.03125,9.375 q 3.75,-6.1875 5.8125,-16.3125 2.15625,-10.21875 2.71875,-18.9375 0.5625,-8.8125 1.03125,-21.9375 l 31.6875,57.1875 h 93.84375 l 87,-186.5625 h -104.4375 q 2.34375,3 4.59375,6.1875 2.34375,3.09375 3.75,5.4375 1.5,2.25 2.625,5.4375 1.125,3.1875 1.125,6.75 0,1.96875 -0.5625,4.40625 l -41.25,102.28125 q 0,0 -0.46875,0.1875 -0.46875,0.1875 -0.9375,0.375 -1.3125,-0.0937 -1.96875,-0.9375 -0.5625,-0.9375 -1.125,-2.15625 -0.46875,-1.3125 -1.3125,-3.1875 l -56.8125,-124.96875 -76.59375,0.1875 40.125,84.84375 q 9.5625,24.46875 9.5625,44.90625 0,8.71875 -1.6875,17.71875 -0.75,0.9375 -1.125,2.0625 L 322.61133,131.08157 h -78.9375 l 84.28125,186.5625 z m 1.125,2.71875 h -69.09375 l -86.8125,-192.375 83.71875,0.1875 66,147.28125 q 1.78125,-8.25 1.78125,-16.3125 0,-18.5625 -9,-40.5 l -43.03125,-90.46875 h 82.59375 l 57.5625,127.6875 q 0.28125,1.875 1.6875,1.875 l 40.96875,-99.84375 q 0,-6.28125 -2.25,-10.875 -2.15625,-4.59375 -6.28125,-10.40625 -4.03125,-5.90625 -4.96875,-8.4375 h 111.75 l -89.4375,192.1875 h -97.21875 l -27.1875,-50.53125 q -0.9375,37.3125 -10.78125,50.53125 z"
         style="fill:#ffffff"
         id="path832" />
      <path
         d="m 713.64258,168.67532 q -0.375,0.375 -0.75,0.375 -0.84375,0 -1.78125,-1.6875 -0.84375,-1.6875 -0.84375,-2.15625 2.71875,-7.40625 3,-13.03125 0,-3.46875 -0.75,-5.71875 l -27.28125,-0.28125 q -0.9375,1.125 -0.9375,1.40625 0.75,1.96875 1.78125,3.28125 1.03125,1.3125 2.71875,3.09375 1.78125,1.6875 3.46875,3.1875 1.6875,1.5 2.4375,2.34375 l -1.96875,3.09375 q -0.0937,0 -0.46875,0.0937 -0.28125,0 -0.65625,0.0937 -9.46875,-4.3125 -13.78125,-12.9375 -0.0937,-1.21875 -0.9375,-3.75 -0.84375,-2.53125 -0.84375,-3.46875 0,-1.78125 1.3125,-2.53125 l 39.9375,0.1875 q 1.03125,5.4375 1.03125,10.59375 0,11.0625 -4.6875,17.8125 z m -9.5625,10.40625 q -5.0625,2.8125 -8.4375,2.8125 -2.4375,0 -3.65625,-1.5 -1.03125,-0.84375 -1.3125,-1.3125 -0.28125,-0.5625 -0.5625,-2.34375 0,-8.625 7.40625,-15.75 0.5625,-0.75 1.6875,-2.625 1.21875,-1.875 1.21875,-3.09375 0,-1.125 -0.5625,-1.96875 -0.65625,-0.9375 -2.34375,-0.9375 l -4.78125,2.15625 q -0.5625,-0.65625 -1.78125,-1.78125 -1.21875,-1.125 -1.6875,-1.6875 0.375,-1.21875 0.84375,-1.21875 l 15.46875,-1.3125 q 0.375,0 0.84375,1.3125 0.375,2.0625 0.375,3.09375 0,3.375 -1.40625,5.53125 -1.40625,2.15625 -5.34375,6.9375 -3.9375,4.78125 -4.96875,7.6875 v 3.84375 q 0.5625,0 2.53125,-1.03125 1.96875,-1.03125 2.8125,-1.03125 0.375,0 0.75,0.375 z m -10.40625,22.40625 q -0.1875,0 -0.375,0.0937 -0.1875,0 -0.375,0.0937 -11.90625,-7.59375 -15.5625,-26.0625 0.1875,-2.90625 0.375,-6.09375 0.28125,-3.28125 1.125,-6 0.84375,-2.71875 2.71875,-4.03125 3.375,2.25 3.65625,3.84375 -0.1875,0.375 -0.46875,1.21875 -0.28125,0.75 -1.03125,1.875 -0.375,3 -0.375,4.59375 0,14.25 14.15625,26.625 z m 19.96875,9.84375 q -0.0937,0.0937 -0.1875,0.28125 -0.0937,0.0937 -0.1875,0.28125 -2.53125,-2.53125 -2.8125,-3.65625 0.46875,-1.5 1.40625,-4.125 1.03125,-2.625 1.5,-4.6875 0.5625,-2.15625 0.5625,-4.40625 0,-1.78125 -0.65625,-4.40625 -1.03125,-6.65625 -4.03125,-10.59375 -3,-3.9375 -9.375,-10.59375 2.8125,-2.8125 4.21875,-2.8125 3.75,2.625 7.5,7.125 3.84375,4.40625 5.90625,9 1.78125,4.6875 1.78125,10.3125 0,10.875 -5.625,18.28125 z m -21.09375,12.09375 q -3.28125,-4.59375 -3.28125,-8.0625 0,-3.28125 2.71875,-7.40625 2.71875,-4.125 9.1875,-10.3125 2.34375,-4.21875 2.34375,-6.28125 0,-1.5 -0.9375,-2.71875 -1.6875,0 -3.5625,1.21875 -1.78125,1.125 -2.8125,1.125 l -3.46875,-4.40625 13.5,-4.5 q 1.21875,1.40625 2.4375,4.6875 0,6.09375 -2.15625,9.84375 -2.0625,3.75 -6.65625,8.15625 -0.1875,0.28125 -2.53125,3.75 -2.25,3.46875 -2.25,5.4375 0,1.40625 0.5625,2.53125 l 5.53125,-0.75 q 2.71875,1.40625 2.71875,3.09375 -4.21875,4.59375 -11.34375,4.59375 z m 1.78125,17.0625 q -1.40625,-0.0937 -2.71875,-1.59375 -1.3125,-1.5 -2.34375,-2.0625 -0.84375,-1.3125 -4.40625,-4.96875 -3.46875,-3.75 -5.15625,-6.1875 -3.28125,-4.875 -3.28125,-11.90625 0,-9 5.15625,-16.875 0.46875,-0.5625 1.40625,-0.5625 2.4375,2.4375 2.4375,4.03125 -0.28125,1.125 -1.3125,2.625 -1.03125,1.40625 -1.5,3.09375 -0.75,2.625 -0.75,5.625 0,3.65625 1.21875,7.125 1.3125,3.375 3.28125,6.5625 2.0625,3.09375 6.09375,7.96875 4.125,4.875 4.3125,5.0625 z m 21.65625,9.75 h -0.375 l -3.09375,-4.03125 q 0.9375,-4.03125 0.9375,-7.03125 0,-4.875 -1.59375,-9.65625 -1.59375,-4.875 -4.125,-9.28125 -2.53125,-4.5 -5.15625,-8.15625 -0.375,-0.46875 -1.59375,-1.40625 -1.125,-1.03125 -1.125,-1.875 0.46875,-0.28125 1.59375,-1.5 1.125,-1.21875 2.0625,-1.21875 4.03125,3.09375 6.5625,7.125 2.625,4.03125 5.53125,9.84375 3.09375,7.875 3.09375,15.09375 0,6.9375 -2.71875,12.09375 z m -9.75,8.71875 q -8.8125,5.4375 -15.75,5.90625 -0.1875,0 -1.03125,-1.3125 -0.375,-2.8125 -0.375,-3.65625 0,-5.34375 1.78125,-8.53125 1.875,-3.28125 6.09375,-8.625 4.21875,-5.34375 5.625,-9.1875 -0.28125,-1.6875 -1.59375,-1.6875 -0.46875,0 -1.78125,0.46875 -1.3125,0.46875 -2.0625,0.65625 -2.53125,-1.3125 -2.8125,-3.09375 4.6875,-4.03125 9.1875,-4.03125 1.6875,0 2.90625,0.65625 1.3125,2.90625 1.3125,5.71875 0,3.28125 -1.5,6.09375 -1.40625,2.8125 -4.5,6.5625 -3,3.75 -4.6875,6.28125 -1.59375,2.4375 -1.96875,5.625 0.0937,0.28125 0.375,1.3125 0.28125,1.03125 0.9375,1.03125 l 8.4375,-2.90625 z m -14.0625,24.5625 h -0.5625 q -4.96875,-3.5625 -10.59375,-10.40625 -4.21875,-7.125 -4.21875,-15.9375 0,-11.15625 6.1875,-18.75 0.375,-0.46875 1.3125,-0.46875 2.34375,0.1875 3.46875,2.53125 -5.34375,5.34375 -5.34375,17.625 0.28125,4.96875 2.15625,8.71875 1.96875,3.65625 4.21875,6 2.25,2.25 7.40625,7.21875 -2.71875,3.09375 -4.03125,3.46875 z m 23.25,5.71875 q -2.71875,0 -3.65625,-3.84375 1.21875,-3 1.875,-8.625 0.28125,-1.3125 0.28125,-3.84375 0,-11.90625 -11.15625,-25.5 l 2.8125,-2.34375 q 2.53125,0.65625 4.21875,2.4375 1.6875,1.78125 3.09375,4.21875 1.40625,2.4375 3.28125,5.625 3.09375,8.8125 3.09375,16.875 0,8.625 -3.28125,14.8125 -0.0937,0 -0.28125,0.0937 -0.0937,0 -0.28125,0.0937 z m -19.21875,11.90625 q -0.75,-0.375 -3,-1.03125 -2.15625,-0.75 -2.53125,-1.59375 0,-3.75 1.3125,-7.125 1.40625,-3.375 3.28125,-5.8125 1.875,-2.4375 5.25,-6.09375 3.375,-3.75 4.3125,-4.96875 -0.0937,-0.84375 -1.3125,-1.40625 l -7.875,1.96875 q -2.25,-0.75 -3.65625,-2.90625 0.0937,-0.375 0.0937,-0.65625 0.0937,-0.375 0.0937,-0.65625 8.25,-4.875 14.4375,-4.875 1.96875,0 3.65625,0.65625 0.1875,0.375 0.375,0.84375 0.1875,0.46875 0.375,1.21875 0,10.21875 -8.4375,16.5 -0.75,0.84375 -2.25,2.625 -1.5,1.6875 -2.34375,3.375 -0.84375,1.6875 -0.84375,3.65625 1.125,0.75 2.34375,0.75 0.46875,0 2.34375,-0.46875 1.875,-0.46875 3,-0.46875 1.5,0.75 2.34375,2.25 -0.75,2.4375 -2.34375,2.90625 -1.59375,0.375 -8.625,1.3125 z m -15.9375,6.5625 q -1.21875,-0.375 -2.4375,-1.59375 -0.65625,-2.625 -0.65625,-5.53125 0,-9.5625 5.8125,-19.03125 3.84375,1.3125 3.84375,3.46875 -3.84375,5.8125 -3.84375,12.84375 0,2.8125 0.75,4.6875 7.6875,0.9375 13.96875,0.9375 8.25,0 13.875,-1.78125 v -1.5 q -0.75,-6.09375 -9.1875,-10.59375 1.40625,-1.59375 2.15625,-2.25 0.84375,-0.75 2.4375,-0.75 0.65625,0.0937 1.03125,0.375 0.46875,0.28125 1.40625,1.125 1.03125,0.75 1.59375,1.125 5.53125,4.96875 5.53125,13.875 0,1.21875 -0.375,4.03125 z m 41.4375,1.6875 0.28125,-171.65625 h -49.03125 v 171.65625 z m 20.8125,8.0625 -95.625,0.1875 q 2.0625,-3.84375 3.46875,-6.375 1.40625,-2.625 3,-6.09375 1.6875,-3.5625 2.71875,-6.9375 3.65625,-15.09375 6.375,-36.75 2.8125,-21.75 2.8125,-42.84375 0,-57.1875 -19.59375,-87.5625 l 96.46875,-0.1875 q -3.46875,4.5 -4.03125,5.71875 -2.0625,5.34375 -3.375,12.46875 -1.3125,7.125 -2.0625,15.5625 -0.65625,8.4375 -1.03125,18.1875 -0.28125,9.65625 -0.46875,15 -0.375,11.625 -0.375,17.15625 0,16.96875 1.3125,35.15625 1.40625,18.09375 3.9375,34.875 2.625,16.6875 6.46875,32.4375 z m 6.28125,2.90625 q -3.1875,-7.125 -5.71875,-17.4375 -2.53125,-10.40625 -3.84375,-19.3125 -1.21875,-8.90625 -2.34375,-18.84375 -1.03125,-9.9375 -1.6875,-17.15625 -1.125,-7.875 -1.125,-32.8125 0,-24.375 0.75,-37.5 0,-10.78125 2.8125,-27.84375 2.8125,-13.59375 11.53125,-21.09375 H 639.76758 q 0,1.6875 0.1875,2.34375 3.65625,5.625 6,9.46875 2.4375,3.75 4.21875,7.78125 1.78125,3.9375 3.9375,12.65625 2.25,8.625 4.3125,20.15625 2.625,10.5 2.625,32.625 0,11.53125 -0.84375,25.96875 -0.75,14.4375 -2.15625,28.78125 -2.8125,16.3125 -7.125,29.34375 -4.21875,12.9375 -11.15625,22.875 z"
         style="fill:#ffffff"
         id="path834" />
    </g>
  </g>
</svg>
